<svg xmlns="http://www.w3.org/2000/svg" viewBox="0 0 512 512" width="512" height="512">
	<style>
		tspan { white-space:pre }
		.shp0 { fill: #ffffff } 
	</style>
	<path id="Layer" class="shp0" d="M336,96c21.2,0 41.3,8.4 56.5,23.5c15.2,15.1 23.5,35.3 23.5,56.5v160c0,21.2 -8.4,41.3 -23.5,56.5c-15.1,15.2 -35.3,23.5 -56.5,23.5h-160c-21.2,0 -41.3,-8.4 -56.5,-23.5c-15.2,-15.1 -23.5,-35.3 -23.5,-56.5v-160c0,-21.2 8.4,-41.3 23.5,-56.5c15.1,-15.2 35.3,-23.5 56.5,-23.5zM336,64h-160c-61.6,0 -112,50.4 -112,112v160c0,61.6 50.4,112 112,112h160c61.6,0 112,-50.4 112,-112v-160c0,-61.6 -50.4,-112 -112,-112z" />
	<path id="Layer" class="shp0" d="M384,152c0,-13.3 -10.8,-24 -24,-24c-13.3,0 -24,10.7 -24,24c0,13.3 10.7,24 24,24c13.2,0 24,-10.7 24,-24zM256,192c35.3,0 64,28.7 64,64c0,35.3 -28.7,64 -64,64c-35.3,0 -64,-28.7 -64,-64c0,-35.3 28.7,-64 64,-64zM256,160c-53,0 -96,43 -96,96c0,53 43,96 96,96c53,0 96,-43 96,-96c0,-53 -43,-96 -96,-96z" />
</svg>